HIERARCHY
ROOT Hips
{
	OFFSET 0.000000 0.000000 0.000000
	CHANNELS 6 Xposition Yposition Zposition Zrotation Yrotation Xrotation 
	JOINT LHipJoint
	{
		OFFSET 0.000000 0.000000 0.000000
		CHANNELS 3 Zrotation Yrotation Xrotation
		JOINT LeftUpLeg
		{
			OFFSET 1.363060 -1.794630 0.839290
			CHANNELS 3 Zrotation Yrotation Xrotation
			JOINT LeftLeg
			{
				OFFSET 2.448110 -6.726130 0.000000
				CHANNELS 3 Zrotation Yrotation Xrotation
				JOINT LeftFoot
				{
					OFFSET 2.562200 -7.039590 0.000000
					CHANNELS 3 Zrotation Yrotation Xrotation
					JOINT LeftToeBase
					{
						OFFSET 0.157640 -0.433110 2.322550
						CHANNELS 3 Zrotation Yrotation Xrotation
						End Site
						{
							OFFSET 0.000000 0.000000 0.000000
						}
					}
				}
			}
		}
	}
	JOINT RHipJoint
	{
		OFFSET 0.000000 0.000000 0.000000
		CHANNELS 3 Zrotation Yrotation Xrotation
		JOINT RightUpLeg
		{
			OFFSET -1.305520 -1.794630 0.839290
			CHANNELS 3 Zrotation Yrotation Xrotation
			JOINT RightLeg
			{
				OFFSET -2.542530 -6.985550 0.000000
				CHANNELS 3 Zrotation Yrotation Xrotation
				JOINT RightFoot
				{
					OFFSET -2.568260 -7.056230 0.000000
					CHANNELS 3 Zrotation Yrotation Xrotation
					JOINT RightToeBase
					{
						OFFSET -0.164730 -0.452590 2.363150
						CHANNELS 3 Zrotation Yrotation Xrotation
						End Site
						{
							OFFSET 0.000000 0.000000 0.000000
						}
					}
				}
			}
		}
	}
	JOINT LowerBack
	{
		OFFSET 0.000000 0.000000 0.000000
		CHANNELS 3 Zrotation Yrotation Xrotation
		JOINT Spine
		{
			OFFSET 0.028270 2.035590 -0.193380
			CHANNELS 3 Zrotation Yrotation Xrotation
			JOINT Spine1
			{
				OFFSET 0.056720 2.048850 -0.042750
				CHANNELS 3 Zrotation Yrotation Xrotation
				JOINT Neck
				{
					OFFSET 0.000000 0.000000 0.000000
					CHANNELS 3 Zrotation Yrotation Xrotation
					JOINT Neck1
					{
						OFFSET -0.054170 1.746240 0.172020
						CHANNELS 3 Zrotation Yrotation Xrotation
						JOINT Head
						{
							OFFSET 0.104070 1.761360 -0.123970
							CHANNELS 3 Zrotation Yrotation Xrotation
							End Site
							{
								OFFSET 0.000000 0.000000 0.000000
							}
						}
					}
				}
				JOINT LeftShoulder
				{
					OFFSET 0.000000 0.000000 0.000000
					CHANNELS 3 Zrotation Yrotation Xrotation
					JOINT LeftArm
					{
						OFFSET 3.362410 1.200890 -0.311210
						CHANNELS 3 Zrotation Yrotation Xrotation
						JOINT LeftForeArm
						{
							OFFSET 4.983000 -0.000000 -0.000000
							CHANNELS 3 Zrotation Yrotation Xrotation
							JOINT LeftHand
							{
								OFFSET 3.483560 -0.000000 -0.000000
								CHANNELS 3 Zrotation Yrotation Xrotation
								JOINT LeftFingerBase
								{
									OFFSET 0.000000 0.000000 0.000000
									CHANNELS 3 Zrotation Yrotation Xrotation
									JOINT LeftHandIndex1
									{
										OFFSET 0.715260 -0.000000 -0.000000
										CHANNELS 3 Zrotation Yrotation Xrotation
										End Site
										{
											OFFSET 0.000000 0.000000 0.000000
										}
									}
								}
								JOINT LThumb
								{
									OFFSET 0.000000 0.000000 0.000000
									CHANNELS 3 Zrotation Yrotation Xrotation
									End Site
									{
										OFFSET 0.000000 0.000000 0.000000
									}
								}
							}
						}
					}
				}
				JOINT RightShoulder
				{
					OFFSET 0.000000 0.000000 0.000000
					CHANNELS 3 Zrotation Yrotation Xrotation
					JOINT RightArm
					{
						OFFSET -3.136600 1.374050 -0.404650
						CHANNELS 3 Zrotation Yrotation Xrotation
						JOINT RightForeArm
						{
							OFFSET -5.241900 -0.000000 -0.000000
							CHANNELS 3 Zrotation Yrotation Xrotation
							JOINT RightHand
							{
								OFFSET -3.444170 -0.000000 -0.000000
								CHANNELS 3 Zrotation Yrotation Xrotation
								JOINT RightFingerBase
								{
									OFFSET 0.000000 0.000000 0.000000
									CHANNELS 3 Zrotation Yrotation Xrotation
									JOINT RightHandIndex1
									{
										OFFSET -0.622530 -0.000000 -0.000000
										CHANNELS 3 Zrotation Yrotation Xrotation
										End Site
										{
											OFFSET 0.000000 0.000000 0.000000
										}
									}
								}
								JOINT RThumb
								{
									OFFSET 0.000000 0.000000 0.000000
									CHANNELS 3 Zrotation Yrotation Xrotation
									End Site
									{
										OFFSET 0.000000 0.000000 0.000000
									}
								}
							}
						}
					}
				}
			}
		}
	}
}
MOTION
Frames: 4
Frame Time: 0.008333
-0.372985 17.967112 -1.905948 -11.302968 -79.782696 18.257288 -5.419026 -0.860797 1.781752 -13.643011 -2.871913 -19.442105 2.260225 11.547050 35.615136 0.851278 -19.308340 12.611433 0.492500 -4.499400 -12.486100 -0.235650 -0.566888 0.002460 20.071469 7.384580 -31.195028 -4.666001 -14.416140 44.312983 -0.651536 3.953229 3.084466 -2.531900 9.895600 -28.639300 4.235861 1.605773 14.410191 2.857668 2.881404 3.059218 -1.440003 1.373102 -5.615998 -2.542701 -2.978842 -4.219663 4.976596 -4.711450 18.622916 0.199000 -1.805200 3.359800 -1.143169 -6.336458 2.795702 -61.244716 25.957417 -30.448686 158.662415 -26.846088 -115.559925 0.303311 -0.527486 -2.283470 4.409203 -3.082520 -0.183400 -7.125000 0.000000 0.000000 -17.059200 27.289000 7.658800 4.930947 6.711759 1.399296 74.770887 -9.489952 23.505292 -38.910990 43.458292 -18.073423 1.083941 0.172381 20.797941 -48.347935 -29.714599 30.109000 7.125000 0.000000 0.000000 -29.082800 -69.384800 17.497600 
-0.485199 17.933358 -1.942789 -9.011080 -78.929398 16.329592 -5.172064 -0.895387 1.595946 -13.665405 -2.337109 -20.997460 2.960690 12.374747 38.421913 0.685450 -20.363140 12.520576 1.038800 -6.482100 -18.189800 -0.133986 -0.497551 0.103663 20.542361 6.185101 -30.331185 -4.298699 -13.961286 42.860525 -0.869369 5.381375 2.072004 -1.305300 7.237500 -20.420800 4.482690 1.398446 13.791877 2.697098 2.601319 3.007300 -1.720808 1.265015 -5.340445 -2.731519 -3.032743 -4.700045 5.162904 -4.802522 18.807177 0.286200 -1.841700 3.526500 -1.147489 -6.323737 2.789231 -61.154890 25.906412 -31.534148 158.209753 -27.393788 -115.357954 0.297494 -0.560486 -2.656834 4.718170 -3.726935 -0.245100 -7.125000 0.000000 0.000000 -16.734000 26.707200 7.740700 4.950596 6.736374 1.371227 75.326448 -9.425523 22.859313 -36.957080 42.204983 -16.609603 1.144615 0.188159 20.503703 -48.092606 -30.278429 30.352200 7.125000 0.000000 0.000000 -28.999400 -69.959800 17.808500 
-0.556690 17.841456 -2.006513 -7.442768 -78.390015 15.176139 -4.823121 -0.972117 1.295853 -13.704259 -2.136403 -23.111834 4.030612 13.493947 42.439140 0.537628 -20.254036 11.498367 1.351800 -7.360100 -20.786700 -0.013973 -0.443261 0.202648 20.843217 6.323261 -29.638019 -3.996873 -13.625543 41.667530 -0.782955 3.962433 -1.192879 -1.622600 8.031200 -22.808800 4.498086 1.410704 13.678486 2.512888 2.604858 2.776081 -1.946935 1.280969 -5.534814 -2.930008 -3.136138 -4.996879 5.435602 -4.991124 18.846811 0.403300 -1.930900 3.619100 -1.152858 -6.330964 2.794811 -60.171006 25.820737 -32.555922 157.634111 -28.072441 -115.108674 0.272476 -0.588327 -3.583617 4.528211 -4.576446 -0.297900 -7.125000 0.000000 0.000000 -16.732900 25.919500 8.064400 4.969913 6.745245 1.326600 75.993538 -9.496425 22.264132 -35.053405 40.894090 -15.219622 1.212028 0.217563 19.519035 -48.057047 -30.692295 30.679100 7.125000 0.000000 0.000000 -29.307100 -70.430100 18.307500 
-0.628778 17.733423 -2.061973 -6.806018 -77.551861 14.865399 -4.414202 -1.025297 0.960287 -13.585565 -2.539740 -25.160078 5.474671 14.781495 47.497527 0.423727 -18.863192 9.804735 1.046700 -6.506000 -18.259900 0.097680 -0.418181 0.319927 21.075458 6.746855 -28.973422 -3.778553 -13.373740 40.814423 -0.731206 2.910311 -3.792398 -1.537000 7.826500 -22.188200 4.826141 1.364057 13.470299 2.448666 2.583088 2.518982 -2.162759 1.271021 -5.703373 -3.298004 -3.265232 -5.283062 5.573066 -5.173643 19.030446 0.510200 -2.025300 3.760600 -1.156549 -6.334440 2.803195 -58.842404 25.637327 -33.315454 156.937022 -28.890250 -114.796207 0.248964 -0.626697 -4.322029 4.454898 -5.577715 -0.366500 -7.125000 0.000000 0.000000 -16.633600 24.995500 8.388500 4.989606 6.744251 1.287698 76.406252 -9.824354 21.961818 -33.351037 39.651816 -14.008737 1.273290 0.258842 17.876372 -48.056206 -30.830741 30.831500 7.125000 0.000000 0.000000 -29.523400 -70.598500 18.557700 
